<svg xmlns="http://www.w3.org/2000/svg" width="235mm" height="166mm">
    <style>
        .route_label {
            fill: black;
            font-size: 20;
            font-family: BritishRailLightNormal;
        }
        .track_label {
            fill: black;
            font-size: 13px;
            font-family: BritishRailLightNormal;
        }
        .route_button {
            stroke: black;
            stroke-width: 1mm;
            fill: red;
        }
        .point_switch {
            stroke: black;
            stroke-width: 1mm;
            fill: #bcc6cc;
        }
        .led {
            stroke: black;
            stroke-width: 1mm;
            fill: #3BB9FF;
        }
        .bd {
            stroke-width: 0;
            fill: #000;
        }
        line {
            stroke-width: 3mm;
            stroke: black;
            stroke-linecap: round;
        }
        #bg {
            fill: #FFF;
            stroke-width: .5mm;
            stroke: black;
        }
    </style>

    <rect width="235mm" height="166mm" id="bg"/>
    <!--<rect width="203mm" height="132mm" fill="#aaa" x="17mm" y="17mm" id="usable_bg"/>-->

    <!--br logo-->
    <path fill="#de433e" d="M87.53 12v47.94H10.82V12h76.71z" id="logo_bg"/>
    <path fill="white" d="M76.57 28.62v4.77H62.61L48.99 40.2h27.58v4.77H48.99l18.05 7.49H54.78l-16.01-7.49H24.8V40.2h13.97l13.62-6.81H24.8v-4.77h27.59l-18.05-7.49H46.6l16.01 7.49h13.96z" id="logo_fg"/>

    <!--text labels-->
    <text fill="black" x="25mm" y="13mm" font-size="38" font-family="BritishRailDarkNormal">Demsby</text>

    <!--tracks-->
    <line id="branch" x1="5mm" y1="45mm" x2="120mm" y2="45mm"/>
    <text x="5mm" y="42mm" class="track_label">BRANCH</text>

    <line id="p1" x1="150mm" y1="25mm" x2="170mm" y2="25mm"/>
    <text x="150mm" y="22mm" class="track_label">PLATFORM 1</text>

    <line id="p2" x1="150mm" y1="45mm" x2="170mm" y2="45mm"/>
    <text x="150mm" y="42mm" class="track_label">PLATFORM 2</text>

    <line id="up" x1="5mm" y1="65mm" x2="230mm" y2="65mm"/>
    <text x="5mm" y="62mm" class="track_label">UP</text>
    <text x="226mm" y="62mm" class="track_label">UP</text>
    <text x="152.5mm" y="62mm" class="track_label">UP LOOP</text>

    <line id="down" x1="5mm" y1="85mm" x2="230mm" y2="85mm"/>
    <text x="5mm" y="82mm" class="track_label">DOWN</text>
    <text x="220mm" y="82mm" class="track_label">DOWN</text>
    <text x="150mm" y="82mm" class="track_label">DOWN LOOP</text>

    <line id="p3" x1="150mm" y1="105mm" x2="170mm" y2="105mm"/>
    <text x="150mm" y="102mm" class="track_label">PLATFORM 3</text>

    <line id="branch_to_p1" x1="120mm" y1="45mm" x2="150mm" y2="25mm"/>

    <line id="up_to_p2" x1="120mm" y1="65mm" x2="150mm" y2="45mm"/>
    <line id="p2_to_up" x1="170mm" y1="45mm" x2="200mm" y2="65mm"/>

    <line id="down_to_p3" x1="120mm" y1="85mm" x2="150mm" y2="105mm"/>
    <line id="p3_to_down" x1="170mm" y1="105mm" x2="200mm" y2="85mm"/>

    <line id="crossover" x1="30mm" y1="85mm" x2="60mm" y2="65mm"/>

    <line id="branch_to_up" x1="85mm" y1="45mm" x2="115mm" y2="65mm"/>
    <line id="up_to_branch" x1="85mm" y1="65mm" x2="115mm" y2="45mm"/>

    <!--point switches-->
    <circle cx="25mm" cy="75mm" r="3mm" class="point_switch"/>

    <circle cx="85mm" cy="55mm" r="3mm" class="point_switch"/>

    <circle cx="120mm" cy="85mm" r="3mm" class="point_switch"/>
    <circle cx="200mm" cy="85mm" r="3mm" class="point_switch"/>
    
    <circle cx="120mm" cy="65mm" r="3mm" class="point_switch"/>
    <circle cx="200mm" cy="65mm" r="3mm" class="point_switch"/>
    
    <!--LEDs-->
    <circle cx="135mm" cy="85mm" r="1.5mm" class="led"/>
    <circle cx="135mm" cy="95mm" r="1.5mm" class="led"/>
    
    <circle cx="135mm" cy="55mm" r="1.5mm" class="led"/>
    <circle cx="135mm" cy="65mm" r="1.5mm" class="led"/>
    
    <circle cx="45mm" cy="65mm" r="1.5mm" class="led"/>
    <circle cx="45mm" cy="75mm" r="1.5mm" class="led"/>
    <circle cx="45mm" cy="85mm" r="1.5mm" class="led"/>
    
    <circle cx="100mm" cy="45mm" r="1.5mm" class="led"/>
    <circle cx="100mm" cy="55mm" r="1.5mm" class="led"/>
    <circle cx="100mm" cy="65mm" r="1.5mm" class="led"/>

    <circle cx="185mm" cy="55mm" r="1.5mm" class="led"/>
    <circle cx="185mm" cy="65mm" r="1.5mm" class="led"/>

    <circle cx="185mm" cy="85mm" r="1.5mm" class="led"/>
    <circle cx="185mm" cy="95mm" r="1.5mm" class="led"/>

    <!--bd-->
    <circle cx="20mm" cy="65mm" r="1.5mm" class="led bd"/>
    <circle cx="20mm" cy="85mm" r="1.5mm" class="led bd"/>
    <circle cx="72mm" cy="45mm" r="1.5mm" class="led bd"/>
    <circle cx="72mm" cy="65mm" r="1.5mm" class="led bd"/>
    <circle cx="72mm" cy="85mm" r="1.5mm" class="led bd"/>
    <circle cx="160mm" cy="25mm" r="1.5mm" class="led bd"/>
    <circle cx="160mm" cy="45mm" r="1.5mm" class="led bd"/>
    <circle cx="160mm" cy="65mm" r="1.5mm" class="led bd"/>
    <circle cx="160mm" cy="85mm" r="1.5mm" class="led bd"/>
    <circle cx="160mm" cy="105mm" r="1.5mm" class="led bd"/>
    <circle cx="217mm" cy="65mm" r="1.5mm" class="led bd"/>
    <circle cx="217mm" cy="85mm" r="1.5mm" class="led bd"/>

    <!--route buttons-->
    <circle cx="25mm" cy="128mm" r="3mm" class="route_button"/>
    <text x="31mm" y="129mm" class="route_label">Route One</text>

    <circle cx="75mm" cy="128mm" r="3mm" class="route_button"/>
    <text x="81mm" y="129mm" class="route_label">Route Two</text>

    <circle cx="125mm" cy="128mm" r="3mm" class="route_button"/>
    <text x="131mm" y="129mm" class="route_label">Route Three</text>

    <circle cx="175mm" cy="128mm" r="3mm" class="route_button"/>
    <text x="181mm" y="129mm" class="route_label">Route Four</text>

    <circle cx="25mm" cy="142mm" r="3mm" class="route_button"/>
    <text x="31mm" y="143mm" class="route_label">Route Five</text>

    <circle cx="75mm" cy="142mm" r="3mm" class="route_button"/>
    <text x="81mm" y="143mm" class="route_label">Route Six</text>

    <circle cx="125mm" cy="142mm" r="3mm" class="route_button"/>
    <text x="131mm" y="143mm" class="route_label">Route Seven</text>

    <circle cx="175mm" cy="142mm" r="3mm" class="route_button"/>
    <text x="181mm" y="143mm" class="route_label">Route Eight</text>
</svg>