<svg xmlns="http://www.w3.org/2000/svg" width="210mm" height="148mm">
    <style>
        .route_label {
            fill: black;
            font-size: 20;
            font-family: BritishRailLightNormal;
        }
        .route_button {
            stroke: black;
            stroke-width: 1mm;
            fill: red;
        }
        .point_switch {
            stroke: black;
            stroke-width: 1mm;
            fill: #bcc6cc;
        }
        .led {
            stroke: black;
            stroke-width: 1mm;
            fill: #3BB9FF;
        }
        line {
            stroke-width: 3mm;
            stroke: black;
            stroke-linecap: round;
        }
    </style>

    <rect width="210mm" height="148mm" fill="#eee" id="bg"/>

    <!--br logo-->
    <path fill="#de433e" d="M87.53 12v47.94H10.82V12h76.71z" id="logo_bg"/>
    <path fill="white" d="M76.57 28.62v4.77H62.61L48.99 40.2h27.58v4.77H48.99l18.05 7.49H54.78l-16.01-7.49H24.8V40.2h13.97l13.62-6.81H24.8v-4.77h27.59l-18.05-7.49H46.6l16.01 7.49h13.96z" id="logo_fg"/>

    <!--text labels-->
    <text fill="black" x="25mm" y="13mm" font-size="38" font-family="BritishRailDarkNormal">Demsby</text>

    <!--tracks-->
    <line id="branch" x1="5mm" y1="40mm" x2="110mm" y2="40mm"/>
    <line id="p1" x1="140mm" y1="20mm" x2="170mm" y2="20mm"/>
    <line id="p2" x1="140mm" y1="40mm" x2="170mm" y2="40mm"/>
    <line id="up" x1="5mm" y1="60mm" x2="205mm" y2="60mm"/>
    <line id="down" x1="5mm" y1="80mm" x2="205mm" y2="80mm"/>
    <line id="p3" x1="140mm" y1="100mm" x2="170mm" y2="100mm"/>

    <line id="branch_to_p1" x1="110mm" y1="40mm" x2="140mm" y2="20mm"/>

    <line id="up_to_p2" x1="110mm" y1="60mm" x2="140mm" y2="40mm"/>
    <line id="p2_to_up" x1="170mm" y1="40mm" x2="200mm" y2="60mm"/>

    <line id="down_to_p3" x1="110mm" y1="80mm" x2="140mm" y2="100mm"/>
    <line id="p3_to_down" x1="170mm" y1="100mm" x2="200mm" y2="80mm"/>

    <line id="crossover" x1="15mm" y1="80mm" x2="45mm" y2="60mm"/>

    <line id="branch_to_up" x1="75mm" y1="40mm" x2="105mm" y2="60mm"/>
    <line id="up_to_branch" x1="75mm" y1="60mm" x2="105mm" y2="40mm"/>
    
    <circle cx="110mm" cy="80mm" r="3mm" class="point_switch"/>
    <circle cx="200mm" cy="80mm" r="3mm" class="point_switch"/>
    
    <circle cx="110mm" cy="60mm" r="3mm" class="point_switch"/>
    <circle cx="200mm" cy="60mm" r="3mm" class="point_switch"/>
    
    <circle cx="75mm" cy="50mm" r="3mm" class="point_switch"/>
    <circle cx="15mm" cy="70mm" r="3mm" class="point_switch"/>
    
    <circle cx="125mm" cy="80mm" r="1.5mm" class="led"/>
    <circle cx="125mm" cy="90mm" r="1.5mm" class="led"/>
    
    <circle cx="185mm" cy="80mm" r="1.5mm" class="led"/>
    <circle cx="185mm" cy="90mm" r="1.5mm" class="led"/>
    
    <circle cx="125mm" cy="50mm" r="1.5mm" class="led"/>
    <circle cx="125mm" cy="60mm" r="1.5mm" class="led"/>
    
    <circle cx="185mm" cy="50mm" r="1.5mm" class="led"/>
    <circle cx="185mm" cy="60mm" r="1.5mm" class="led"/>
    
    <circle cx="30mm" cy="60mm" r="1.5mm" class="led"/>
    <circle cx="30mm" cy="70mm" r="1.5mm" class="led"/>
    <circle cx="30mm" cy="80mm" r="1.5mm" class="led"/>
    
    <circle cx="90mm" cy="40mm" r="1.5mm" class="led"/>
    <circle cx="90mm" cy="50mm" r="1.5mm" class="led"/>
    <circle cx="90mm" cy="60mm" r="1.5mm" class="led"/>

    <!--route buttons-->
    <circle cx="15mm" cy="125mm" r="3mm" class="route_button"/>
    <text x="23mm" y="126mm" class="route_label">Route One</text>
    <circle cx="65mm" cy="125mm" r="3mm" class="route_button"/>
    <text x="73mm" y="126mm" class="route_label">Route Two</text>
    <circle cx="115mm" cy="125mm" r="3mm" class="route_button"/>
    <text x="123mm" y="126mm" class="route_label">Route Three</text>
    <circle cx="165mm" cy="125mm" r="3mm" class="route_button"/>
    <text x="173mm" y="126mm" class="route_label">Route Four</text>
    <circle cx="15mm" cy="137mm" r="3mm" class="route_button"/>
    <text x="23mm" y="138mm" class="route_label">Route Five</text>
    <circle cx="65mm" cy="137mm" r="3mm" class="route_button"/>
    <text x="73mm" y="138mm" class="route_label">Route Six</text>
    <circle cx="115mm" cy="137mm" r="3mm" class="route_button"/>
    <text x="123mm" y="138mm" class="route_label">Route Seven</text>
    <circle cx="165mm" cy="137mm" r="3mm" class="route_button"/>
    <text x="173mm" y="138mm" class="route_label">Route Eight</text>
</svg>